<mxfile host="app.diagrams.net" modified="2023-06-28T07:25:58.839Z" agent="Mozilla/5.0 (Macintosh; Intel Mac OS X 10_15_7) AppleWebKit/537.36 (KHTML, like Gecko) Chrome/114.0.0.0 Safari/537.36" etag="dr6EyGpIQnQl2YjGZqKy" version="21.5.1" type="github">
  <diagram name="第 1 页" id="adbc34bg1MjSBCMGL86M">
    <mxGraphModel dx="954" dy="458" grid="1" gridSize="10" guides="1" tooltips="1" connect="1" arrows="1" fold="1" page="1" pageScale="1" pageWidth="827" pageHeight="1169" math="0" shadow="0">
      <root>
        <mxCell id="0" />
        <mxCell id="1" parent="0" />
        <mxCell id="vpqd5cE5wk3J6TGdX_G2-1" value="" style="rounded=0;whiteSpace=wrap;html=1;" vertex="1" parent="1">
          <mxGeometry x="360" y="80" width="350" height="290" as="geometry" />
        </mxCell>
        <mxCell id="vpqd5cE5wk3J6TGdX_G2-2" value="Actor" style="shape=umlActor;verticalLabelPosition=bottom;verticalAlign=top;html=1;outlineConnect=0;" vertex="1" parent="1">
          <mxGeometry x="250" y="200" width="30" height="60" as="geometry" />
        </mxCell>
        <mxCell id="vpqd5cE5wk3J6TGdX_G2-3" value="日志管理" style="ellipse;whiteSpace=wrap;html=1;" vertex="1" parent="1">
          <mxGeometry x="370" y="180" width="120" height="80" as="geometry" />
        </mxCell>
        <mxCell id="vpqd5cE5wk3J6TGdX_G2-4" value="日志管理" style="text;strokeColor=none;align=center;fillColor=none;html=1;verticalAlign=middle;whiteSpace=wrap;rounded=0;" vertex="1" parent="1">
          <mxGeometry x="360" y="80" width="60" height="30" as="geometry" />
        </mxCell>
        <mxCell id="vpqd5cE5wk3J6TGdX_G2-5" value="查看日志" style="ellipse;whiteSpace=wrap;html=1;" vertex="1" parent="1">
          <mxGeometry x="580" y="180" width="120" height="80" as="geometry" />
        </mxCell>
        <mxCell id="vpqd5cE5wk3J6TGdX_G2-6" value="" style="endArrow=classic;html=1;rounded=0;exitX=1;exitY=0.5;exitDx=0;exitDy=0;entryX=0;entryY=0.5;entryDx=0;entryDy=0;" edge="1" parent="1" source="vpqd5cE5wk3J6TGdX_G2-3" target="vpqd5cE5wk3J6TGdX_G2-5">
          <mxGeometry width="50" height="50" relative="1" as="geometry">
            <mxPoint x="490" y="270" as="sourcePoint" />
            <mxPoint x="540" y="220" as="targetPoint" />
          </mxGeometry>
        </mxCell>
        <mxCell id="vpqd5cE5wk3J6TGdX_G2-7" value="&amp;lt;&amp;lt;include&amp;gt;&amp;gt;" style="edgeLabel;html=1;align=center;verticalAlign=middle;resizable=0;points=[];" vertex="1" connectable="0" parent="vpqd5cE5wk3J6TGdX_G2-6">
          <mxGeometry x="-0.04" y="-1" relative="1" as="geometry">
            <mxPoint y="-11" as="offset" />
          </mxGeometry>
        </mxCell>
        <mxCell id="vpqd5cE5wk3J6TGdX_G2-8" value="" style="endArrow=classic;html=1;rounded=0;exitX=1;exitY=0.3333333333333333;exitDx=0;exitDy=0;exitPerimeter=0;entryX=0;entryY=0.5;entryDx=0;entryDy=0;" edge="1" parent="1" source="vpqd5cE5wk3J6TGdX_G2-2" target="vpqd5cE5wk3J6TGdX_G2-3">
          <mxGeometry width="50" height="50" relative="1" as="geometry">
            <mxPoint x="190" y="390" as="sourcePoint" />
            <mxPoint x="240" y="340" as="targetPoint" />
          </mxGeometry>
        </mxCell>
      </root>
    </mxGraphModel>
  </diagram>
</mxfile>
